<svg xmlns="http://www.w3.org/2000/svg" width="27.583" height="27.577" viewBox="0 0 27.583 27.577">
  <g id="Group_58" data-name="Group 58" transform="translate(-1116.425 -286.297)">
    <path id="Path_186" data-name="Path 186" d="M844.211-611.248l3.833,3.831,7.664-7.664" transform="translate(281.401 915.17)" fill="none" stroke="#adbcd0" stroke-width="1.5"/>
    <g id="Group_7" transform="translate(1117.175 286.297)">
      <path id="Path_187" data-name="Path 187" d="M837.884-616.492v-5.623a1.966,1.966,0,0,0,.223-.225l.056-.067c.055-.037.109-.077.168-.125a2,2,0,0,0,.209-.2l.177-.177a2.382,2.382,0,0,0,.307-.385h24.281v6.8Z" transform="translate(-837.883 626.136)" fill="#d5dfed"/>
      <g id="Group_8" transform="translate(0)">
        <path id="Path_188" data-name="Path 188" d="M860.883-599.365H840.948a3.064,3.064,0,0,1-3.065-3.064v-17.629a3.064,3.064,0,0,1,3.065-3.065h19.935a3.064,3.064,0,0,1,3.064,3.065v17.629A3.063,3.063,0,0,1,860.883-599.365Z" transform="translate(-837.883 626.192)" fill="none" stroke="#adbcd0" stroke-width="1.5"/>
        <path id="Path_189" data-name="Path 189" d="M838.469-618.526h26.052" transform="translate(-837.688 627.725)" fill="none" stroke="#adbcd0" stroke-width="1.5"/>
        <path id="Path_190" data-name="Path 190" d="M842.486-625.425Z" transform="translate(-836.349 625.425)" fill="none" stroke="#131426" stroke-width="1.5"/>
        <path id="Path_191" data-name="Path 191" d="M852.835-625.425Z" transform="translate(-832.899 625.425)" fill="none" stroke="#131426" stroke-width="1.5"/>
        <rect id="Rectangle_50" data-name="Rectangle 50" width="26.823" height="26.823" transform="translate(0.009 0.003)" fill="none"/>
      </g>
    </g>
  </g>
</svg>
