<svg xmlns="http://www.w3.org/2000/svg" width="12.205" height="15.583" viewBox="0 0 12.205 15.583">
  <g id="Group_33" transform="translate(0 0.375)">
    <path id="Path_469"  d="M637.536-776.387a2.37,2.37,0,0,0,2.355-2.4v-.8a2.37,2.37,0,0,0-2.355-2.4,2.37,2.37,0,0,0-2.355,2.4v.8A2.37,2.37,0,0,0,637.536-776.387Z" transform="translate(-635.181 783.835)" fill="#adbcd0"/>
    <path id="Path_470"  d="M643.158-776.387a2.37,2.37,0,0,0,2.355-2.4v-.8a2.37,2.37,0,0,0-2.355-2.4,2.37,2.37,0,0,0-2.355,2.4v.8A2.37,2.37,0,0,0,643.158-776.387Z" transform="translate(-633.307 783.835)" fill="#adbcd0"/>
    <path id="Path_471"  d="M640.521-776.108a3.072,3.072,0,0,0,3.052-3.113v-1.039a3.072,3.072,0,0,0-3.052-3.115,3.072,3.072,0,0,0-3.052,3.115v1.039A3.072,3.072,0,0,0,640.521-776.108Z" transform="translate(-634.418 783.375)" fill="#fff" stroke="#0072bc" stroke-width="0.75"/>
    <path id="Path_472"  d="M635.181-772.434v-3.051c0-.823,2.841-2.2,5.432-2.413h1.337c2.591.215,5.436,1.591,5.436,2.413v3.051c0,.895-3.36,2.441-6.1,2.441S635.181-771.539,635.181-772.434Z" transform="translate(-635.181 785.201)" fill="#fff"/>
  </g>
</svg>
