<svg xmlns="http://www.w3.org/2000/svg" width="12.207" height="15.208" viewBox="0 0 12.207 15.208">
  <g id="Group_32" transform="translate(0 0)">
    <path id="Path_467" d="M761.495-772.793v-3.051c0-.823,2.841-2.2,5.432-2.413l.393.929.536.073.409-1c2.591.215,5.436,1.591,5.436,2.413v3.051c0,.9-3.36,2.441-6.1,2.441S761.495-771.9,761.495-772.793Zm6.1,2.172.911-.937-.381-4.489-.256-1.12-.523-.073-.28,1.153-.375,4.521Zm0-7.664c-.191,0-.381.005-.575.021C767.232-778.278,767.416-778.285,767.6-778.285Zm0,0c.147,0,.3.005.439.013C767.894-778.278,767.746-778.285,767.6-778.285Z" transform="translate(-761.495 785.56)" fill="#adbcd0"/>
    <path id="Path_468" d="M766.835-776.476a3.07,3.07,0,0,0,3.052-3.113v-1.039a3.07,3.07,0,0,0-3.052-3.113,3.071,3.071,0,0,0-3.052,3.113v1.039A3.071,3.071,0,0,0,766.835-776.476Z" transform="translate(-760.732 783.741)" fill="#fff"/>
  </g>
</svg>
