<svg xmlns="http://www.w3.org/2000/svg" width="82.544" height="45.022" viewBox="0 0 82.544 45.022">
  <g id="Group_20" transform="translate(0 0)">
    <g id="Group_21" transform="translate(0 6.485)">
      <g id="Group_22" transform="translate(26.889 5.903)">
        <g id="Group_23">
          <path id="Path_309"  d="M58.105-788.17H56.92l1.395-4.857H55.253l.005-2.812,1.153,0v1.656h3.147v.94Z" transform="translate(-55.253 795.841)" fill="#fff" fill-rule="evenodd"/>
          <path id="Path_310"  d="M62.8-788.586v-4.857H60.842l.007,3.741a1.29,1.29,0,0,1-1.144,1.117h-.94v-1.153h.679a.323.323,0,0,0,.252-.237v-3.468H58.95v-1.152l5,0,.005,6.013Z" transform="translate(-54.082 796.255)" fill="#fff" fill-rule="evenodd"/>
        </g>
      </g>
      <g id="Group_24" transform="translate(19.496 14.952)">
        <path id="Path_311"  d="M49.708-783.061v-1.145h2.831l.008-3.7H49.709v-1.152h3.981v4.848h.532v1.147Z" transform="translate(-49.708 789.054)" fill="#fff" fill-rule="evenodd"/>
        <path id="Path_312"  d="M54.146-786.157V-787.9h-.781v-1.153H55.3l0,2.9Z" transform="translate(-48.489 789.054)" fill="#fff" fill-rule="evenodd"/>
        <path id="Path_313"  d="M55.233-783.057V-784.2h2.835v-3.7H55.233v-1.152l3.987.012v4.839h.529v1.147Z" transform="translate(-47.866 789.054)" fill="#fff" fill-rule="evenodd"/>
        <path id="Path_314"  d="M62.587-783.056l-2.3-3.807-.005,3.8H59.119l0-3.6a.7.7,0,0,1,.285-.605l.413-.324-.889-1.457h1.324l2.328,3.853v-3.853h1.155v3.34a.829.829,0,0,1-.449.8l-.348.236.963,1.608Z" transform="translate(-46.634 789.057)" fill="#fff" fill-rule="evenodd"/>
      </g>
      <g id="Group_25" transform="translate(27.292 22.323)">
        <g id="Group_26">
          <path id="Path_315"  d="M56.336-777.538v-4.838h-.781v-1.151h1.928v5.988Z" transform="translate(-55.555 783.526)" fill="#fff" fill-rule="evenodd"/>
          <path id="Path_316"  d="M60.512-777.538H57.549v-1.147h2.92a.384.384,0,0,0,.3-.3v-3.1a.376.376,0,0,0-.3-.295H58.7v1.393h.933v1.087h-2.08v-3.631h2.963a1.6,1.6,0,0,1,1.405,1.405v3.18A1.6,1.6,0,0,1,60.512-777.538Z" transform="translate(-54.89 783.526)" fill="#fff" fill-rule="evenodd"/>
          <path id="Path_317"  d="M61.988-780.635v-1.744l-.775,0v-1.143h1.929l-.005,2.893Z" transform="translate(-53.669 783.526)" fill="#fff" fill-rule="evenodd"/>
        </g>
      </g>
      <g id="Group_27">
        <path id="Path_318"  d="M39.214-793.652l.009-.071-.1-.161,0-.069-.035.012-.021-.029-.007.047-.047.024-.02-.02a.7.7,0,0,0,0,.105l.085-.048Z" transform="translate(-33.783 802.367)" fill="#fff" fill-rule="evenodd"/>
        <path id="Path_319"  d="M39.237-793.855l-.047.021.019.067.069-.039a.243.243,0,0,0-.029-.105.544.544,0,0,0-.045-.061c-.031-.015-.073-.028-.069-.028v.076s.033,0,.056.009Z" transform="translate(-33.737 802.357)" fill="#fff" fill-rule="evenodd"/>
        <path id="Path_320"  d="M39.219-794.057a.328.328,0,0,0,0,.109l.077-.039.017-.008.016.013.036.059-.077.043.012.065.137-.073-.013-.067-.028.016-.055-.1c0-.012-.015-.016-.028-.023a.056.056,0,0,0-.039,0l-.04.023Z" transform="translate(-33.71 802.338)" fill="#fff" fill-rule="evenodd"/>
        <path id="Path_321"  d="M39.341-794.03c.035.005.057.008.057.012a.246.246,0,0,0,0,.059.284.284,0,0,0,.031.052v.037l.06-.037-.012-.061-.035.017-.019-.027v-.033a.326.326,0,0,1,.092.023.411.411,0,0,0,.081.037h0l0-.064-.077-.029a.111.111,0,0,0,.005-.077c-.009-.028-.065-.044-.065-.041v.067l.027.016.017.031a.432.432,0,0,1-.08-.023.59.59,0,0,0-.085-.021Z" transform="translate(-33.668 802.303)" fill="#fff" fill-rule="evenodd"/>
        <path id="Path_322"  d="M37.634-793.986l-.036-.019-.055.043.076.04.049-.04.032-.091.059.028.013.016v.023l-.08.123.061-.021.072-.12a.068.068,0,0,0,.007-.039.3.3,0,0,0-.023-.029l-.095-.043.008-.037a.592.592,0,0,0-.095.061l.036.016Z" transform="translate(-34.267 802.306)" fill="#fff" fill-rule="evenodd"/>
        <path id="Path_323"  d="M37.791-794.022s.037.043.016.065a.568.568,0,0,1-.06.041.245.245,0,0,0,.095-.021.057.057,0,0,0,.035-.065l-.016-.061Z" transform="translate(-34.199 802.336)" fill="#fff" fill-rule="evenodd"/>
        <path id="Path_324"  d="M37.887-793.85l-.051-.028-.044.047.072.039a.288.288,0,0,0,.08-.075.2.2,0,0,0,.031-.071.338.338,0,0,0-.011-.072l-.067.041c0,.005.016.028.024.048Z" transform="translate(-34.184 802.354)" fill="#fff" fill-rule="evenodd"/>
        <path id="Path_325"  d="M38.061-793.968a.432.432,0,0,0-.093.059l.077.037.008.019-.005.017-.036.059-.077-.044-.055.044.143.073.051-.047-.025-.013.056-.089a.044.044,0,0,0,.007-.039.039.039,0,0,0-.024-.025l-.039-.025Z" transform="translate(-34.155 802.368)" fill="#fff" fill-rule="evenodd"/>
        <path id="Path_326"  d="M38.106-793.73l-.048-.029-.048.043.073.043a.358.358,0,0,0,.073-.076.19.19,0,0,0,.036-.068.136.136,0,0,0-.011-.072l-.067.043a.1.1,0,0,1,.023.044Z" transform="translate(-34.111 802.394)" fill="#fff" fill-rule="evenodd"/>
        <path id="Path_327"  d="M38.181-793.817s.024.056.017.071l-.071.119v.005l.064-.037h0s.041-.068.064-.1,0-.1,0-.1Z" transform="translate(-34.072 802.405)" fill="#fff" fill-rule="evenodd"/>
        <path id="Path_328"  d="M37.957-798.236h.935v-1.075l.833-.565.807.565v1.075h.933v-.652c.4.112.776.189.776.189v.463H43.2l0-.437h.821l0,.916H35.406l-.008-.916h.819l.008.437h.952v-.463s.381-.077.78-.189v.652m-.989,8.373a1.514,1.514,0,0,1-.883-1.031v-6.013a1.1,1.1,0,0,0-.251-.517h7.755a1.163,1.163,0,0,0-.255.517v6.013a1.5,1.5,0,0,1-.881,1.031,8.792,8.792,0,0,1-1.087.241,2.866,2.866,0,0,0-1.6.716H39.65a2.371,2.371,0,0,0-1.363-.688c-.081-.015-1.064-.192-1.32-.269m2.76-10.405-1.149.819v.869H38.3v-.759a7.957,7.957,0,0,1-1.419.339v.42h-.324v-.413L35.086-799v1.559a1,1,0,0,1,.129.005.768.768,0,0,1,.58.52l-.007,6.024a1.777,1.777,0,0,0,1.144,1.343c.268.076,1.364.267,1.465.284a1.8,1.8,0,0,1,.893.4,2.454,2.454,0,0,1,.38.728,2.762,2.762,0,0,1,.472-.724,2.524,2.524,0,0,1,1.223-.445c.487-.1.763-.135,1.131-.239a1.761,1.761,0,0,0,1.144-1.332v-6.035a.736.736,0,0,1,.711-.525v-1.552H42.878v.413h-.327l.008-.42a1.654,1.654,0,0,1-.235-.039,7.612,7.612,0,0,1-1.193-.3l0,.759h-.269v-.869l-1.132-.819m2.171,3.377a.854.854,0,0,0-.084.125c-.017.044-.035.083-.052.12h.1l.061.249h-.1l-.071.163h.233l.06-.153-.053-.259h.188l.048.025.016.04v.383l.111-.12,0-.361-.011-.045-.033-.052-.043-.032-.043-.009H41.93l-.032-.073m-.532-.171-.116.155a.087.087,0,0,1,.027.075v.149l.047.037h.205c.036.093.019.137-.005.165a.171.171,0,0,1-.073.051.441.441,0,0,1-.084.024l-.116.208c.007,0,.027-.009.073-.025a1.015,1.015,0,0,0,.141-.061.367.367,0,0,0,.124-.1.346.346,0,0,0,.067-.125.367.367,0,0,0,.027-.129.336.336,0,0,0,.012-.085l-.012-.068-.039-.032-.248,0v-.137a.246.246,0,0,0-.016-.079l-.013-.028m-.6.185-.1.16.039.071v.093a.455.455,0,0,1-.079-.075l-.073-.085-.112-.1-.06-.052-.1.151c.091.06.132.093.132.093-.016.028-.028.048-.041.068a.307.307,0,0,0-.033.085.2.2,0,0,0-.013.081l0,.068-.048.08h.193l.064-.163h-.1l-.008-.057.029-.132.076.077a.361.361,0,0,1,.107.112.958.958,0,0,1,.076.1l.077.1.085-.152-.135-.159c.028-.027.061-.055.089-.08a.2.2,0,0,0,.033-.084.313.313,0,0,0-.043-.136l-.047-.068m-.876-.015a.682.682,0,0,0-.084.128c-.021.041-.036.084-.051.117h.231l.043.019.019.053v.177h-.235l-.071.163h.427l.072-.163h-.085v-.283l-.005-.051-.039-.06a.137.137,0,0,0-.057-.028H39.9l-.009-.073m-.34.017-.109.175a.287.287,0,0,1,.061.027.12.12,0,0,1,.061.085,1.05,1.05,0,0,1-.035.117l-.041.083a.757.757,0,0,1,.083-.064.466.466,0,0,0,.112-.12.19.19,0,0,0,.028-.087l-.013-.052-.033-.044-.113-.12m-.521-.025a1.129,1.129,0,0,0-.085.136,1.248,1.248,0,0,1-.048.117h.231l.041.019.016.053v.177h-.229l-.076.163h.431l.069-.163H39.3l0-.283,0-.051-.033-.051c-.015-.024-.033-.028-.059-.037h-.149l-.013-.081m-.267.311h-.283l-.063.111h.292l.053-.111m-.624-.285-.107.173a.141.141,0,0,1,.06.028c.04.029.063.056.063.087a.394.394,0,0,1-.037.116l-.039.08.085-.061a.669.669,0,0,0,.109-.12.137.137,0,0,0,.027-.081l-.012-.057-.037-.044-.112-.12m-.487.013c-.019,0-.049.024-.1.071a.3.3,0,0,0-.077.147c0,.027.015.06.064.119a.344.344,0,0,0,.061.065l.052-.129-.032-.032-.013-.059a.1.1,0,0,1,.1,0c.063.019.093.043.1.077l.008.067v.111l-.3.028-.079.163h.429l.065-.163,0-.048c0-.019,0-.049,0-.085s0-.075,0-.113a.232.232,0,0,0-.012-.053l-.063-.056c-.023-.013-.047-.037-.067-.052s-.059-.025-.093-.039a.159.159,0,0,0-.051-.017m-.431-.039-.108.175c.032.028.067.052.1.081a.107.107,0,0,1,.045.075v.371l.115-.155,0-.333a.246.246,0,0,0-.065-.137l-.079-.076m3.192,6.375-.229.033c.035.067.113.108.152.172l-.027.283.2-.116.253.091a1.007,1.007,0,0,0-.061-.185c-.072-.121.117-.177.155-.271l-.2-.035c-.067-.032-.077-.127-.131-.175a1.04,1.04,0,0,1-.115.2m-1.54-.012a1.613,1.613,0,0,0-.241.055l.159.163-.028.269.195-.1.252.088c-.011-.088-.051-.168-.057-.263a1.472,1.472,0,0,0,.147-.189l-.147-.035c-.12.031-.113-.116-.164-.175-.037.06-.068.128-.115.191m.748.595a.891.891,0,0,0-.248.052l.143.125c.035.1-.037.215.005.309l.2-.111c.081.02.151.083.228.089a2.714,2.714,0,0,1-.067-.268l.169-.171-.18-.043c-.089-.02-.1-.123-.14-.185-.037.069-.077.131-.113.2m.095-8.717a1.616,1.616,0,0,0-.123.183l-.215.051c.019.08.087.1.124.175l-.012.28a1.417,1.417,0,0,1,.177-.1l.248.092a1.081,1.081,0,0,0-.064-.245c.033-.085.121-.127.165-.185a.173.173,0,0,0-.068-.044l-.049-.012a.157.157,0,0,0-.061,0c-.092-.019-.076-.136-.123-.189m2.848,3.325c-.047.067-.071.136-.115.205a1.322,1.322,0,0,0-.269.059,1.878,1.878,0,0,1,.165.159l-.011.261.1-.067a.115.115,0,0,1,.109-.043.24.24,0,0,1,.1.047.356.356,0,0,0,.1.041l-.048-.252a1.49,1.49,0,0,0,.175-.189c-.015.009-.037,0-.053,0s-.044-.011-.067-.011a.376.376,0,0,0-.061-.021.323.323,0,0,1-.129-.189m-.676-.707c-.048.056-.069.125-.109.179-.088.031-.193.043-.275.063l.171.164c.009.1-.037.193-.013.284l.179-.121.251.1a2.325,2.325,0,0,0-.068-.263c.056-.064.123-.12.168-.181l-.224-.049-.079-.175m.808-.175-.108.2-.253.047a.359.359,0,0,0,.093.087c.136.079.031.247.049.36a1.563,1.563,0,0,1,.2-.113l.244.1-.045-.2c-.048-.119.091-.167.139-.247a.348.348,0,0,0-.116-.031l-.048-.008a.252.252,0,0,1-.056-.015c-.045-.055-.052-.121-.1-.177m-2.568.417a2.53,2.53,0,0,0-.4-.037,2.442,2.442,0,0,0-2.384,2.492,2.465,2.465,0,0,0,1.985,2.461,2.2,2.2,0,0,0,.392.033,2.451,2.451,0,0,0,2.389-2.495,2.472,2.472,0,0,0-1.985-2.455m-.789,4.837a2.394,2.394,0,0,1-1.923-2.383,2.37,2.37,0,0,1,2.315-2.412,2.6,2.6,0,0,1,.381.032,2.392,2.392,0,0,1,1.921,2.38,2.362,2.362,0,0,1-2.309,2.412,1.957,1.957,0,0,1-.385-.029m1.069-2.263a.916.916,0,0,1-.207.017l-.011-.044.528-.02.025.047h-.336m-.677-1.355h-.111l-.015-.117.125-.065.1.076.009.107h-.108m0,.135h-.145l.013-.064h.261a.116.116,0,0,1,.013.064h-.143m0,.063h.143l-.035.047h-.223l-.028-.047h.143m0,.4h-.111v-.067h.217v.067h-.107m0,.261h.121v.1h-.239v-.1h.117m0,.168.059.015a1.035,1.035,0,0,1,.317.247,1.569,1.569,0,0,1,.159.252.175.175,0,0,1-.075.005,1.164,1.164,0,0,0-.223-.233.586.586,0,0,0-.237-.109.522.522,0,0,0-.237.109,1.062,1.062,0,0,0-.223.233l-.072-.005a1.255,1.255,0,0,1,.159-.252.842.842,0,0,1,.32-.247l.053-.015m.343.125.083.091h.063v-.091h-.145m.224,0h.192v.091H40.3v-.091m.277.091h.115l-.051-.091h-.064v.091m-.637-.229.049.059h.652l.025-.059h-.727m0-.155v.1H40.1a.416.416,0,0,0,0-.1h-.165m.659,0v.06h-.116v-.06h-.1v.06h-.105v-.06h-.1v.1h.544v-.1H40.6m-.815-.189h.172v.111h-.172v-.111m.257,0v.111h.219l-.052-.111h-.167m-.1-.137v.067h.173l-.072-.067h-.1m-.144-.079h.189l-.088-.121h-.1v.121m.7.971c.085,0,.149,0,.213,0h.053l.039.073c-.068,0-.131-.007-.2-.007-.028-.017-.059,0-.089,0a.358.358,0,0,1-.208-.045h-.044a.8.8,0,0,1,.236-.02m-1.351.083-.088-.021-.008-.077H39.2l-.053.1m-.209-.1v.055a.272.272,0,0,0-.121-.033l-.127-.005.248-.016m.317-.1-.024.047h-.512l.024-.047h.512m.135-.155-.083.091H39.25v-.091h.135m-.408.091h.183v-.091h-.183v.091m-.095,0h-.108l.053-.091h.055v.091m.647-.229-.051.059h-.651l-.033-.059h.735m0-.052h-.172v-.1h.172v.1m-.659-.1v.06h.111v-.06h.1v.06H39.2v-.06h.1l0,.1h-.54v-.1h.119m.637-.079h.175v-.111h-.175v.111m-.083-.111v.111h-.22l.06-.111h.16m.1-.137,0,.067h-.172l.072-.067h.1m.137-.079h-.188l.088-.121h.1v.121m.064-.733c-.033.005-.087.071-.087.071l-.128-.056a.737.737,0,0,1,.009.315.255.255,0,0,0,0,.193c-.005.053-.056.089-.088.133a.948.948,0,0,1-.224.188.258.258,0,0,0-.057.105c-.007.039-.024.075-.029.116v.045l-.036-.045h-.136v.064h-.063v-.064H38.7v.208l.067.144-.188.3-.136.029a1.51,1.51,0,0,0-.085-.732l.975-.343.083-.092-1.123.333-.037-.083,1.16-.336-.017-.087-1.191.317a.145.145,0,0,1,.048-.157c.044-.041.1-.035.16-.041a1.616,1.616,0,0,0,.571-.089,1.023,1.023,0,0,0,.5-.475l.068.028.032-.041-.075-.048.043-.048.065.04-.031-.092c.013-.036.1-.085.1-.085a.455.455,0,0,1,.015.123h.065a.455.455,0,0,1,.015-.123s.081.049.1.085a.277.277,0,0,1-.061.059l.1-.007.033.048-.073.048.04.041s.033-.041.063-.028a.979.979,0,0,0,.519.487,1.466,1.466,0,0,0,.553.077c.051.007.113,0,.153.041a.185.185,0,0,1,.064.141l-1.2-.3-.016.087,1.151.336c.005.028-.019.052-.032.083l-1.117-.339.075.1.977.343a1.476,1.476,0,0,0-.085.732l-.139-.029-.187-.3.071-.144v-.208h-.192l-.008.064h-.061v-.064h-.129l-.033.045-.007-.045a.784.784,0,0,1-.024-.116.248.248,0,0,0-.068-.105,1.12,1.12,0,0,1-.22-.188.355.355,0,0,1-.087-.133.249.249,0,0,0,0-.193.861.861,0,0,1,.005-.315l-.127.056s-.053-.065-.085-.071m.016-.455a.268.268,0,0,0-.272.16,1.328,1.328,0,0,1-.551.6,1.287,1.287,0,0,1-.544.077.321.321,0,0,0-.215.055.271.271,0,0,0-.128.215c.011.207.275.417.277.921a1.057,1.057,0,0,1-.252.621.294.294,0,0,0,.007.293.331.331,0,0,0,.264.164,1.526,1.526,0,0,1,.621.091.943.943,0,0,1,.471.564.348.348,0,0,0,.173.16.878.878,0,0,0,.132.012.3.3,0,0,0,.128-.019.316.316,0,0,0,.176-.153,1.061,1.061,0,0,1,.424-.533,1.277,1.277,0,0,1,.669-.121.181.181,0,0,0,.145-.044.19.19,0,0,0,.061-.043.875.875,0,0,0,.061-.077.285.285,0,0,0,.024-.2.27.27,0,0,0-.02-.092c-.044-.1-.1-.147-.147-.253a.886.886,0,0,1-.089-.393,1.256,1.256,0,0,1,.143-.576c.065-.124.14-.2.113-.316a.337.337,0,0,0-.125-.219.285.285,0,0,0-.208-.055,1.352,1.352,0,0,1-.551-.077,1.464,1.464,0,0,1-.557-.617.227.227,0,0,0-.232-.139m.149,3.5-.083-.012-.057,0a.277.277,0,0,1-.143.016.125.125,0,0,1-.049-.016l-.043,0-.047.013.047-.013.043,0-.043,0-.047.013a.569.569,0,0,0,.051.129.223.223,0,0,0,.1.107.156.156,0,0,0,.055.017l.047.008a.207.207,0,0,0,.135-.111c.016-.032.037-.071.064-.113l.02-.051-.047.005m-.451-.059a.409.409,0,0,1-.069-.1.308.308,0,0,1,.175-.067.991.991,0,0,0,.173-.016c.047.005.089.008.128.016a.825.825,0,0,1,.177.045c.069.016.077.016.083.012l-.069.069a.147.147,0,0,1-.1.013l-.057-.069c-.064,0-.108.043-.159.056l-.041.008-.008-.045a.167.167,0,0,0-.171.06l-.061.02m1.523-.5.063.016-.063-.016.063.016c-.169.043-.353.019-.517.056a1.375,1.375,0,0,1-.2.061c-.032.008-.063.012-.083.017h-.063c-.031-.005-.059-.009-.072-.036v-.043l-.041-.013c-.023,0-.033.011-.056.011-.049,0-.085.025-.141.035l.016-.069-.033,0a1.1,1.1,0,0,0-.112.028.777.777,0,0,0-.073.047.046.046,0,0,1,.007-.047.221.221,0,0,0-.139.025.334.334,0,0,1-.187.049H39.3a1.23,1.23,0,0,0-.249.025.332.332,0,0,0-.073-.033,1.532,1.532,0,0,0-.353-.077.168.168,0,0,1,.105-.053h.041c.08.02.136.031.188.04-.052-.009-.108-.02-.165-.035.057.015.113.025.165.035a1,1,0,0,0,.172.013.37.37,0,0,1,.053,0c.047,0,.095-.013.147-.017.075-.024.143-.036.207-.06.037,0,.056.012.084.013a1.032,1.032,0,0,0,.133-.011.383.383,0,0,1,.059,0h.047c.064.019.149.044.16.044s.036,0,.053,0h.091c.087-.015.181-.015.271-.031l.187-.007c.116.005.243.012.355.023m-.988-.645.1-.013a1.021,1.021,0,0,0,.256,0c.059,0,.131.013.192.011a1.775,1.775,0,0,0,.228.021c.085.021.179.032.265.063a.363.363,0,0,1-.211.027l-.016-.041a1.068,1.068,0,0,1-.188.015l-.029-.041a1,1,0,0,1-.235.043l-.033-.043a2.947,2.947,0,0,0-.329.057l-.019-.047a.534.534,0,0,0-.235-.011,1.844,1.844,0,0,0-.4.085h-.044a.081.081,0,0,0-.085-.049,1.027,1.027,0,0,0-.223.039l-.056-.067a.958.958,0,0,0-.135.021.234.234,0,0,0-.184.024.272.272,0,0,0-.237.02l.008-.047c.013-.048.067-.039.1-.048a.987.987,0,0,1,.428-.037c.092.025.191.037.288.059.139.021.249-.064.383-.08a.813.813,0,0,1,.272.009l.141.031m-.021.172h.065a3.772,3.772,0,0,1,.532-.041l.036.051a1.049,1.049,0,0,1,.451.005c.02-.005.055-.015.068.023a.235.235,0,0,1-.187.013l-.205-.013c-.1.011-.213.011-.311.016a2.391,2.391,0,0,0-.285.008,1.141,1.141,0,0,1-.263-.041.467.467,0,0,1-.089.031l.015-.043a.482.482,0,0,0-.219.02,2.729,2.729,0,0,1-.313.083,1.021,1.021,0,0,1-.172-.021l-.052-.019a.9.9,0,0,1-.173.032c-.028-.013-.064,0-.085-.016a.452.452,0,0,1-.2.024.187.187,0,0,1-.119.016l-.047-.011a.1.1,0,0,1-.108-.013.215.215,0,0,1,.227-.083c.053-.025.095-.061.145-.044a.15.15,0,0,1,.077.033c.027-.015.057-.031.084-.017l.045.017a.782.782,0,0,1,.373-.015c.027.005.063.033.092.02.055-.015.1-.02.144-.036a1.419,1.419,0,0,1,.347-.025.794.794,0,0,0,.129.047m-.143.135c.036,0,.053-.032.084-.024.052,0,.1.035.16.035a.291.291,0,0,1,.1,0c.063-.011.141-.011.213-.019a1.674,1.674,0,0,1,.375-.016,1.878,1.878,0,0,1,.353.061l.064.008.036.079a1.3,1.3,0,0,1-.176,0l-.005-.06c-.053,0-.095.04-.145.04l-.029-.04a.3.3,0,0,0-.195.056l-.017-.045a.534.534,0,0,1-.32.029.349.349,0,0,0-.143-.012.786.786,0,0,1-.208,0v-.04c-.035,0-.059.023-.085.024l-.1.016v-.047a.371.371,0,0,0-.157.051l-.041-.032a.256.256,0,0,0-.153.056l-.015-.044a.887.887,0,0,1-.271.056c-.031-.008-.071.007-.1-.024l.037-.033a.306.306,0,0,0-.156,0c-.064.021-.135.067-.209.033a.175.175,0,0,1-.169.024.168.168,0,0,0-.111.017.729.729,0,0,1-.219.037l-.009-.055c0-.024-.007-.057.024-.068.127,0,.239-.02.361-.02a3.053,3.053,0,0,1,.385-.033,1.3,1.3,0,0,0,.355.028.23.23,0,0,0,.117-.039c.071,0,.133-.04.189,0a.175.175,0,0,1,.151-.023l.031.024m.547.2c.028,0,.051.035.079.009a1.237,1.237,0,0,1,.508-.035.727.727,0,0,1,.279.089c.005.032-.033.049-.056.063a.087.087,0,0,1-.085-.013.855.855,0,0,0-.471-.075l-.06.007-.089.012-.044.02c-.053.009-.111.009-.163.019H40.2c-.031.015-.045,0-.079,0-.088-.008-.173-.055-.264-.059a.839.839,0,0,0-.2,0,.3.3,0,0,0-.1.015.243.243,0,0,0-.1.028c-.081.009-.151.048-.24.06-.064-.011-.129-.011-.193-.024a1.042,1.042,0,0,0-.475-.017c-.039.017-.079.017-.116.031a.194.194,0,0,1-.193-.013.753.753,0,0,1,.185-.1l.053.007a.693.693,0,0,0,.191-.012l.036-.019c.052.044.123,0,.177-.016a.169.169,0,0,0,.163.019l.089-.008a.835.835,0,0,0,.257.017.94.94,0,0,0,.185-.028c.037,0,.081.011.123.011h.051c.051-.011.1,0,.152-.011a1.172,1.172,0,0,1,.415.011l.04.015m-.053.333a.293.293,0,0,1-.175.1l-.092,0h-.053l-.04,0c-.033-.012-.041-.017-.055-.023l-.009-.049a.569.569,0,0,0-.315.049l-.015-.049a1.339,1.339,0,0,0-.183.072l-.059.04a.567.567,0,0,0-.077-.068.861.861,0,0,1,.245-.1,1.266,1.266,0,0,0-.217.073,1.266,1.266,0,0,1,.217-.073.5.5,0,0,1,.133-.007l.067.005c.041,0,.08-.013.123-.013,0,0,.064,0,.084,0a.43.43,0,0,1,.084.023,1.1,1.1,0,0,0,.144.024c.064-.005.124,0,.18-.009h.012m-.579-2.744-.115.079.115-.117.108.083-.092-.035Z" transform="translate(-35.086 800.268)" fill="#fff" fill-rule="evenodd"/>
      </g>
    </g>
    <path id="Path_329"  d="M87.416-787.666c-.007-.176-.024-.344-.041-.517l-2.488.285c.012.119.023.232.025.352Z" transform="translate(-18.485 810.782)" fill="#f48120" fill-rule="evenodd"/>
    <path id="Path_330"  d="M89.011-776.661c.185-.2.5-.544.679-.751l-3.176-2.776c-.14.161-.392.432-.535.587Z" transform="translate(-18.121 813.447)" fill="#f48120" fill-rule="evenodd"/>
    <path id="Path_331"  d="M67.04-782.2c-.147-.369-.283-.732-.4-1.113l-2.484.829c.136.419.309.875.479,1.283l2.219-.915" transform="translate(-25.397 812.405)" fill="#f48120" fill-rule="evenodd"/>
    <path id="Path_332"  d="M91.429-791.258c-.121-.359-.224-.647-.363-.989l-1.993.783c.12.289.215.569.317.871Z" transform="translate(-17.09 809.427)" fill="#f48120" fill-rule="evenodd"/>
    <path id="Path_333"  d="M78.329-771.18a19.087,19.087,0,0,0,2.923-.229l-.372-2.469a16.6,16.6,0,0,1-2.571.211Z" transform="translate(-20.678 815.55)" fill="#f48120" fill-rule="evenodd"/>
    <path id="Path_334"  d="M67.684-778.024c-.245-.3-.48-.605-.7-.92l-2.143,1.551c.253.349.511.7.781,1.04Z" transform="translate(-25.167 813.861)" fill="#f48120" fill-rule="evenodd"/>
    <path id="Path_335"  d="M94.5-788.033c-.029-.44-.067-.881-.121-1.317l2.415-.308c.072.512.143.995.177,1.516Z" transform="translate(-15.323 810.29)" fill="#f48120" fill-rule="evenodd"/>
    <path id="Path_336"  d="M88.447-783.94a12.616,12.616,0,0,1-1.712,3.343l-3.069-2.219a9.152,9.152,0,0,0,1.2-2.352Z" transform="translate(-18.892 811.787)" fill="#f48120" fill-rule="evenodd"/>
    <path id="Path_337"  d="M80.527-801.115l.127-1.4c.357.031.713.071,1.065.119h.037v-.005l.092-.808a22.3,22.3,0,0,0-2.913-.191,21.978,21.978,0,0,0-2.979.2l.331,2.2a18.844,18.844,0,0,1,2.648-.181c.535,0,1.065.016,1.583.06Z" transform="translate(-21.462 805.711)" fill="#f48120" fill-rule="evenodd"/>
    <path id="Path_338"  d="M74.724-783.69a7,7,0,0,0,1.62,1.279l-.963,1.689a9.224,9.224,0,0,1-2.061-1.609Z" transform="translate(-22.341 812.279)" fill="#f48120" fill-rule="evenodd"/>
    <path id="Path_339"  d="M81.811-791.993c.191.117.368.243.545.377l2.837-3.767c-.279-.207-.525-.376-.815-.569Z" transform="translate(-19.511 808.192)" fill="#f48120" fill-rule="evenodd"/>
    <path id="Path_340"  d="M72.771-777.42l-1.085,1.777c.419.24.844.464,1.284.672l.22-.469a16.573,16.573,0,0,0,1.819.737l-.161.492h0a18.226,18.226,0,0,0,2.675.663l.343-2.056A15.5,15.5,0,0,1,72.771-777.42Z" transform="translate(-22.886 814.37)" fill="#f48120" fill-rule="evenodd"/>
    <g id="Group_28" transform="translate(14.232 14.047)">
      <path id="Path_341"  d="M49.595-793.6H48.28l-.011,5.013-1.209,0,.005-5.009-1.305,0v-.995l3.835.007Z" transform="translate(-45.76 794.597)" fill="#44c7f4" fill-rule="evenodd"/>
      <path id="Path_342"  d="M52.537-793.6l-2.145,0v1.409l2.017.005,0,.993H50.392l0,1.615h2.227v.993H49.176l.008-6.011h3.353Z" transform="translate(-44.621 794.597)" fill="#44c7f4" fill-rule="evenodd"/>
      <path id="Path_343"  d="M52.369-794.6h1.213v5.016h2.145v.993H52.369Z" transform="translate(-43.557 794.597)" fill="#44c7f4" fill-rule="evenodd"/>
    </g>
    <g id="Group_29" transform="translate(2.503 21.437)">
      <path id="Path_344"  d="M40.054-789.054l1.583,6.005h-1.26l-.28-1.276H38.5l-.281,1.272-1.26,0,1.595-6h1.5m-.163,3.741-.58-2.7h-.017l-.583,2.7Z" transform="translate(-36.963 789.054)" fill="#44c7f4" fill-rule="evenodd"/>
      <path id="Path_345"  d="M42.665-784.617h.024l.9-4.437,1.253.012-1.387,6H41.894l-1.369-6.008h1.291Z" transform="translate(-35.776 789.054)" fill="#44c7f4" fill-rule="evenodd"/>
      <path id="Path_346"  d="M44.294-789.045H45.5l-.007,6-1.207,0Z" transform="translate(-34.521 789.057)" fill="#44c7f4" fill-rule="evenodd"/>
      <path id="Path_347"  d="M47.877-784.608h.02l.9-4.437h1.253l-1.384,6H47.11l-1.376-6h1.3Z" transform="translate(-34.039 789.057)" fill="#44c7f4" fill-rule="evenodd"/>
    </g>
    <g id="Group_30" transform="translate(8.803 28.71)">
      <path id="Path_348"  d="M43.836-781.2h.016l.836-2.317H46l-1.548,3.633v2.356h-1.2l-.007-2.356-1.553-3.628h1.363Z" transform="translate(-41.688 783.627)" fill="#44c7f4" fill-rule="evenodd"/>
      <path id="Path_349"  d="M47.821-783.522l1.589,5.983H48.156l-.279-1.259H46.285l-.271,1.265-1.257,0,1.573-5.989,1.491,0m-.153,3.736-.585-2.7h-.016l-.576,2.7Z" transform="translate(-40.665 783.626)" fill="#44c7f4" fill-rule="evenodd"/>
      <path id="Path_350"  d="M52.059-783.526l0,.989-2.139.005v1.4l2.015,0v.991H49.926v2.6h-1.2l0-5.983Z" transform="translate(-39.345 783.625)" fill="#44c7f4" fill-rule="evenodd"/>
      <path id="Path_351"  d="M51.751-781.743a2.784,2.784,0,0,1,.276-.981,1.617,1.617,0,0,1,.613-.643,2.216,2.216,0,0,1,1.081-.233,2.125,2.125,0,0,1,1.076.233,1.539,1.539,0,0,1,.623.643,2.89,2.89,0,0,1,.277.981,12.055,12.055,0,0,1,.063,1.249,11.522,11.522,0,0,1-.063,1.253,2.82,2.82,0,0,1-.273.984,1.414,1.414,0,0,1-.616.627,2.258,2.258,0,0,1-1.077.221,2.229,2.229,0,0,1-1.083-.221,1.425,1.425,0,0,1-.617-.624,2.862,2.862,0,0,1-.279-.979c-.037-.379-.06-.795-.06-1.256a11.8,11.8,0,0,1,.059-1.255m1.179,2.276a2.907,2.907,0,0,0,.112.689.846.846,0,0,0,.255.383.7.7,0,0,0,.435.117.689.689,0,0,0,.427-.117.818.818,0,0,0,.253-.383,3.4,3.4,0,0,0,.116-.692c.016-.28.028-.623.028-1.021s-.015-.743-.032-1.023a2.974,2.974,0,0,0-.121-.684.774.774,0,0,0-.244-.393.758.758,0,0,0-.436-.117.7.7,0,0,0-.425.117.739.739,0,0,0-.255.393,2.954,2.954,0,0,0-.112.684c-.024.283-.031.623-.031,1.023S52.905-779.749,52.929-779.467Z" transform="translate(-38.353 783.6)" fill="#44c7f4" fill-rule="evenodd"/>
    </g>
    <path id="Path_352"  d="M68.366-788.02c.028-.287.067-.575.108-.861l4.143.637c-.04.205-.059.381-.083.6Z" transform="translate(-23.992 810.549)" fill="#00b2ef" fill-rule="evenodd"/>
    <path id="Path_353"  d="M88.723-787.324c0,.008-.008.008-.008.019a13.6,13.6,0,0,1-.075,1.387l-3.757-.432c.031-.317.049-.621.049-.955v-.04Z" transform="translate(-18.487 811.061)" fill="#00b2ef" fill-rule="evenodd"/>
    <path id="Path_354"  d="M84.481-789.179a8.667,8.667,0,0,0-1.309-1.873l3.513-3.14a13.474,13.474,0,0,1,1.988,2.868Z" transform="translate(-19.057 808.779)" fill="#00b2ef" fill-rule="evenodd"/>
    <path id="Path_355"  d="M72.632-778.916a13.4,13.4,0,0,1-2.537-3.053l-2.645,1.612a16.317,16.317,0,0,0,1.261,1.8l.895-.729s.407.512.9,1.007.827.811.827.811Z" transform="translate(-24.298 812.853)" fill="#00b2ef" fill-rule="evenodd"/>
    <path id="Path_356"  d="M83.253-797.126a13.847,13.847,0,0,1,1.7.948l-2.513,3.889a8.961,8.961,0,0,0-1.156-.643Z" transform="translate(-19.687 807.801)" fill="#00b2ef" fill-rule="evenodd"/>
    <path id="Path_357"  d="M89.387-782.329a15.1,15.1,0,0,1-1.647,2.767l-.992-.747a13.657,13.657,0,0,0,1.511-2.539Z" transform="translate(-17.865 812.56)" fill="#00b2ef" fill-rule="evenodd"/>
    <path id="Path_358"  d="M80.727-774.3a16.758,16.758,0,0,1-2.528.189h-.037s.008-2.313.021-2.313a15.729,15.729,0,0,0,2.187-.175Z" transform="translate(-20.727 814.643)" fill="#00b2ef" fill-rule="evenodd"/>
    <path id="Path_359"  d="M89.037-790.513c.085.284.168.567.241.856l2.1-.507c-.072-.329-.171-.66-.267-.979Z" transform="translate(-17.102 809.795)" fill="#00b2ef" fill-rule="evenodd"/>
    <path id="Path_360"  d="M81.344-800.282c-.245-.049-.621-.112-.867-.153l-.36,2.085c.229.036.565.108.784.155Z" transform="translate(-20.075 806.698)" fill="#00b2ef" fill-rule="evenodd"/>
    <path id="Path_361"  d="M93.51-787.313c0,.349-.008.7-.024,1.047l-2.091-.116c.015-.312.024-.628.024-.939Z" transform="translate(-16.316 811.069)" fill="#00b2ef" fill-rule="evenodd"/>
    <path id="Path_362"  d="M76.663-770.936a19.36,19.36,0,0,1-2.217-.405l.3-1.315c.828.2,1.348.279,2.085.392Z" transform="translate(-21.966 815.958)" fill="#00b2ef" fill-rule="evenodd"/>
    <path id="Path_363"  d="M69.8-802.946c-.561.316-1.1.644-1.627,1l1.847,2.74c.459-.311.916-.6,1.4-.868Z" transform="translate(-24.056 805.861)" fill="#00b2ef" fill-rule="evenodd"/>
    <path id="Path_364"  d="M83.185-804.876c-.36-.1-.72-.179-1.1-.256l-.52,2.425c.327.064.672.16.991.241Z" transform="translate(-19.591 805.132)" fill="#00b2ef" fill-rule="evenodd"/>
    <path id="Path_365"  d="M93.906-791.84c-.151-.456-.252-.8-.429-1.243l3.2-1.255c.185.449.368.947.529,1.407Z" transform="translate(-15.622 808.73)" fill="#00b2ef" fill-rule="evenodd"/>
    <path id="Path_366"  d="M85.293-788.5c-.036-.187-.088-.4-.135-.579l-1.885.492c.04.161.083.331.117.5Z" transform="translate(-19.023 810.483)" fill="#00b2ef" fill-rule="evenodd"/>
    <path id="Path_367"  d="M71.637-783.457l-1.047.575a12.938,12.938,0,0,0,.768,1.247l2.043-1.452a8.931,8.931,0,0,1-.8-1.364l-1.183.56Z" transform="translate(-23.251 812.025)" fill="#00b2ef" fill-rule="evenodd"/>
    <path id="Path_368"  d="M73.018-791.249a9.018,9.018,0,0,1,1.541-1.465l1.165,1.559a7.44,7.44,0,0,0-1.2,1.141Z" transform="translate(-22.442 809.271)" fill="#00b2ef" fill-rule="evenodd"/>
    <path id="Path_369"  d="M71.044-802.27c.269-.125.767-.343,1.047-.459l.959,2.308c-.239.107-.691.309-.927.419Z" transform="translate(-23.1 805.933)" fill="#c4c16a" fill-rule="evenodd"/>
    <path id="Path_370"  d="M75.607-781.42c-.308-.191-.457-.281-.668-.437l-2.731,3.836c.28.2.612.42,1.017.675Z" transform="translate(-22.712 812.891)" fill="#c4c16a" fill-rule="evenodd"/>
    <path id="Path_371"  d="M75.688-793.151c.147-.06.307-.127.449-.181l-.445-1.233c-.173.064-.344.131-.512.2Z" transform="translate(-21.721 808.654)" fill="#c4c16a" fill-rule="evenodd"/>
    <path id="Path_372"  d="M68.577-789.361c.053-.232.113-.457.177-.685l4.021,1.139c-.041.133-.088.315-.117.451Z" transform="translate(-23.922 810.161)" fill="#c4c16a" fill-rule="evenodd"/>
    <path id="Path_373"  d="M79.822-776.477a17.9,17.9,0,0,0,2.2-.511l.693,2.229a16.371,16.371,0,0,1-2.545.589Z" transform="translate(-20.174 814.514)" fill="#c4c16a" fill-rule="evenodd"/>
    <path id="Path_374"  d="M68.55-794.632c-.128.163-.2.273-.319.445l1.64,1.133c.111-.147.171-.229.287-.377" transform="translate(-24.037 808.632)" fill="#c4c16a" fill-rule="evenodd"/>
    <path id="Path_375"  d="M74.273-773.58c-.785-.265-1.328-.509-2-.807L73-775.935a16.573,16.573,0,0,0,1.819.737Z" transform="translate(-22.691 814.865)" fill="#c4c16a" fill-rule="evenodd"/>
    <path id="Path_376"  d="M67.071-786.317c-.015-.329-.031-.656-.031-.989v-.036l-2.261.009c0,.377.023.8.04,1.18Z" transform="translate(-25.188 811.062)" fill="#c4c16a" fill-rule="evenodd"/>
    <path id="Path_377"  d="M85.532-795.359a14.408,14.408,0,0,0-1.311-.948l1.111-1.7c.495.321.975.663,1.432,1.025Z" transform="translate(-18.707 807.506)" fill="#c4c16a" fill-rule="evenodd"/>
    <path id="Path_378"  d="M70.189-776.349a17.679,17.679,0,0,1-2.289-2.343l1.561-1.268a16.636,16.636,0,0,0,2.029,2.093Z" transform="translate(-24.148 813.523)" fill="#c4c16a" fill-rule="evenodd"/>
    <path id="Path_379"  d="M74.5-802.081c.365-.084.729-.172,1.1-.241l.475,2.441c-.325.061-.652.132-.969.216Z" transform="translate(-21.949 806.069)" fill="#c4c16a" fill-rule="evenodd"/>
    <path id="Path_380"  d="M92.107-784.942l2.909.505a20.973,20.973,0,0,1-1.589,5.188l-.969-.436.4-.939-1.768-.7a18,18,0,0,0,1.016-3.619" transform="translate(-16.417 811.862)" fill="#c4c16a" fill-rule="evenodd"/>
    <path id="Path_381"  d="M79.108-792.025a6.589,6.589,0,0,1,1.348.377l.737-1.8a8.268,8.268,0,0,0-1.731-.492Z" transform="translate(-20.412 808.864)" fill="#ee402f" fill-rule="evenodd"/>
    <path id="Path_382"  d="M72.158-783.9c-.047-.1-.127-.279-.225-.521l-3.571,1.472c.1.237.2.492.313.725l3.489-1.664" transform="translate(-23.994 812.035)" fill="#ee402f" fill-rule="evenodd"/>
    <path id="Path_383"  d="M68.449-788.663c.049-.3.108-.581.175-.871l4.081.907c-.053.205-.089.393-.125.6Z" transform="translate(-23.965 810.331)" fill="#ee402f" fill-rule="evenodd"/>
    <path id="Path_384"  d="M70.6-793.069a13.669,13.669,0,0,1,2.269-2.155l2.5,3.347a9.726,9.726,0,0,0-1.541,1.465Z" transform="translate(-23.249 808.435)" fill="#ee402f" fill-rule="evenodd"/>
    <path id="Path_385"  d="M76.294-796.943c-.32.073-.635.149-.956.248l1.207,4.008c.132-.044.284-.085.419-.124l.056-.009c.1-.024.115-.033.181-.047Z" transform="translate(-21.668 807.862)" fill="#ee402f" fill-rule="evenodd"/>
    <path id="Path_386"  d="M83.949-776.435a15.9,15.9,0,0,0,1.8-1.157l-1.487-2.031a12.917,12.917,0,0,1-1.513.955Z" transform="translate(-19.198 813.635)" fill="#ee402f" fill-rule="evenodd"/>
    <path id="Path_387"  d="M88.3-783.665c.1-.283.2-.6.269-.885l2.468.661s-.207.7-.321,1.047Z" transform="translate(-17.349 811.993)" fill="#ee402f" fill-rule="evenodd"/>
    <path id="Path_388"  d="M89.382-787.671c-.016-.391-.059-.677-.109-1.069l2.152-.265c.059.436.088.757.108,1.211Z" transform="translate(-17.023 810.507)" fill="#ee402f" fill-rule="evenodd"/>
    <path id="Path_389"  d="M68.692-791.789c.121-.241.231-.461.365-.693l-2.087-1.159c-.141.263-.295.539-.429.812Z" transform="translate(-24.601 808.962)" fill="#ee402f" fill-rule="evenodd"/>
    <path id="Path_390"  d="M78.465-797.019c.289,0,.747.04,1.035.056l.229-2.187c-.349-.031-.847-.068-1.2-.079Z" transform="translate(-20.626 807.1)" fill="#ee402f" fill-rule="evenodd"/>
    <path id="Path_391"  d="M78.9-799.228c-.2,0-.892-.007-1.543.036l.157,2.2c.361-.021.445-.029.813-.029h.5Z" transform="translate(-20.994 807.1)" fill="#44c7f4" fill-rule="evenodd"/>
    <path id="Path_392"  d="M86.485-794.458a16.192,16.192,0,0,0-1.281-1.157l1.232-1.627a18.191,18.191,0,0,1,1.495,1.349Z" transform="translate(-18.38 807.762)" fill="#ee402f" fill-rule="evenodd"/>
    <path id="Path_393"  d="M91.225-777.387c.255-.337.423-.559.661-.9l-2.009-1.34c-.207.307-.343.507-.573.8Z" transform="translate(-17.013 813.632)" fill="#ee402f" fill-rule="evenodd"/>
    <path id="Path_394"  d="M91.535-792.456c-.171-.392-.341-.755-.531-1.123L93.776-795c.207.4.456.879.631,1.292Z" transform="translate(-16.446 808.509)" fill="#ee402f" fill-rule="evenodd"/>
    <path id="Path_395"  d="M85.977-798.7a17.92,17.92,0,0,0-2.829-1.331l.885-2.357a21.065,21.065,0,0,1,3.208,1.513Z" transform="translate(-19.065 806.047)" fill="#ee402f" fill-rule="evenodd"/>
    <path id="Path_396"  d="M64.9-794.686c.391-.655.837-1.321,1.288-1.927l-1.972-1.481a23.287,23.287,0,0,0-1.443,2.147Z" transform="translate(-25.856 807.478)" fill="#ee402f" fill-rule="evenodd"/>
    <path id="Path_397"  d="M74.66-783.564a6.861,6.861,0,0,1-1.184-2.864l-1.913.371a8.943,8.943,0,0,0,1.513,3.628Z" transform="translate(-22.927 811.367)" fill="#ee402f" fill-rule="evenodd"/>
    <path id="Path_398"  d="M85.265-788.644a8.622,8.622,0,0,1,.173,1.732c0,.323-.019.684-.049.995l-1.935-.219a6.32,6.32,0,0,0,.035-.747,6.812,6.812,0,0,0-.125-1.355Z" transform="translate(-18.993 810.628)" fill="#ee402f" fill-rule="evenodd"/>
    <path id="Path_399"  d="M91.351-796.2c.176.248.337.489.5.744l-2.1,1.336c-.131-.211-.3-.453-.44-.655l2.04-1.425" transform="translate(-17.011 808.11)" fill="#ee402f" fill-rule="evenodd"/>
    <path id="Path_400"  d="M91.4-795.754c.052.076.1.147.149.212v0l.684-.471a18.081,18.081,0,0,0-1.14-1.513l-1.911,1.557c.311.375.605.749.887,1.147Z" transform="translate(-17.055 807.666)" fill="#c4c16a" fill-rule="evenodd"/>
    <path id="Path_401"  d="M82.791-789.815a7.322,7.322,0,0,0-2.2-1.759L81.5-793.3a8.864,8.864,0,0,1,2.8,2.252Z" transform="translate(-19.917 809.077)" fill="#0071bb" fill-rule="evenodd"/>
    <path id="Path_402"  d="M69.836-792.893a14.144,14.144,0,0,0-1.044,1.944l6.105,2.64a6.447,6.447,0,0,1,.537-.985Z" transform="translate(-23.85 809.212)" fill="#0071bb" fill-rule="evenodd"/>
    <path id="Path_403"  d="M88.541-792.226c.133.263.271.553.4.825l-3.621,1.567c-.087-.195-.187-.4-.287-.595Z" transform="translate(-18.438 809.434)" fill="#0071bb" fill-rule="evenodd"/>
    <path id="Path_404"  d="M90.723-783.467c-.039.129-.075.255-.111.349l-1.765-.6c-.083.235-.188.523-.249.673l2,.8c.108-.26.311-.873.395-1.139Z" transform="translate(-17.248 812.269)" fill="#0071bb" fill-rule="evenodd"/>
    <path id="Path_405"  d="M68.47-794.356a13.292,13.292,0,0,1,.92-1.105l1.487,1.34a12.083,12.083,0,0,0-.8.967Z" transform="translate(-23.958 808.356)" fill="#0071bb" fill-rule="evenodd"/>
    <path id="Path_406"  d="M66.462-789.462c.036-.2.056-.317.107-.515l-1.3-.3a16.92,16.92,0,0,0-.336,1.916l1.34.149c.049-.42.108-.837.191-1.255" transform="translate(-25.137 810.085)" fill="#0071bb" fill-rule="evenodd"/>
    <path id="Path_407"  d="M80.6-802.613c.5.065.985.153,1.472.256l-.515,2.436a17.111,17.111,0,0,0-2.244-.331l.221-2.48c.357.031.713.071,1.065.119" transform="translate(-20.343 805.932)" fill="#0071bb" fill-rule="evenodd"/>
    <path id="Path_408"  d="M80.6-802.613c.5.065.985.153,1.472.256l-.515,2.436a17.111,17.111,0,0,0-2.244-.331l.221-2.48c.357.031.713.071,1.065.119" transform="translate(-20.343 805.932)" fill="#0071bb" fill-rule="evenodd"/>
    <path id="Path_409"  d="M91.671-792.932c-.091-.221-.189-.431-.289-.633l-.787.384c.089.185.376.828.455,1.019l2.305-.923c-.028-.092-.123-.281-.207-.488Z" transform="translate(-16.583 808.985)" fill="#0071bb" fill-rule="evenodd"/>
    <path id="Path_410"  d="M79.243-782.1a8.928,8.928,0,0,1-1.075.08l.011,1.945a9.814,9.814,0,0,0,1.365-.1Z" transform="translate(-20.725 812.809)" fill="#0071bb" fill-rule="evenodd"/>
    <path id="Path_411"  d="M76.931-780.807a7.608,7.608,0,0,1-1.3-.549L73.32-776.8a15.435,15.435,0,0,0,1.989.843Z" transform="translate(-22.341 813.058)" fill="#0071bb" fill-rule="evenodd"/>
    <path id="Path_412"  d="M81.843-798.149l.383-1.269h0c-.223-.064-.468-.133-.692-.193l-.509,1.979s.415.1.6.161.452.148.452.148l.232-.671h0C82.152-798.052,82-798.1,81.843-798.149Z" transform="translate(-19.773 806.972)" fill="#0071bb" fill-rule="evenodd"/>
    <path id="Path_413"  d="M93.3-787.037q0,.524-.024,1.047l1.333.081c.019-.376.028-.771.028-1.153s-.031-.711-.048-1.088l-2.551.129c.019.343.027.64.027.984Z" transform="translate(-16.103 810.793)" fill="#ffcc4c" fill-rule="evenodd"/>
    <path id="Path_414"  d="M71.46-786.736c0-.137,0-.277.016-.413a8.712,8.712,0,0,1,.339-2.043l1.88.523a6.592,6.592,0,0,0-.285,1.924Z" transform="translate(-22.961 810.445)" fill="#ffcc4c" fill-rule="evenodd"/>
    <path id="Path_415"  d="M84.925-787.179c0-.161-.005-.317-.019-.48l3.784-.185c.011.224.017.459.017.68Z" transform="translate(-18.479 810.895)" fill="#ffcc4c" fill-rule="evenodd"/>
    <path id="Path_416"  d="M71.988-783.6c-.073-.139-.151-.284-.215-.423l-2.236,1.063c.095.2.175.355.276.551Z" transform="translate(-23.602 812.168)" fill="#ffcc4c" fill-rule="evenodd"/>
    <path id="Path_417"  d="M66.949-785.979l-.051-.563,1.821-.124a13.841,13.841,0,0,0,.416,2.656l-3.371.9a17.406,17.406,0,0,1-.479-2.685Z" transform="translate(-25.019 811.287)" fill="#ffcc4c" fill-rule="evenodd"/>
    <path id="Path_418"  d="M76.953-797.449a12.874,12.874,0,0,0-2.449.688l-.736-1.9a15.821,15.821,0,0,1,2.8-.793Z" transform="translate(-22.192 807.023)" fill="#ffcc4c" fill-rule="evenodd"/>
    <path id="Path_419"  d="M66.454-782.618l.143.36-1.095.449s.215.519.283.661l2.407-1.111c-.084-.185-.293-.679-.372-.873Z" transform="translate(-24.947 812.466)" fill="#ffcc4c" fill-rule="evenodd"/>
    <path id="Path_420"  d="M86.165-794.8a15.012,15.012,0,0,1,1.555,1.859l1.687-1.139a17.362,17.362,0,0,0-1.8-2.155Z" transform="translate(-18.059 808.099)" fill="#ffcc4c" fill-rule="evenodd"/>
    <path id="Path_421"  d="M64.023-793.308c.124-.275.245-.549.383-.815l1.915.929c-.123.24-.235.491-.344.732Z" transform="translate(-25.44 808.802)" fill="#ffcc4c" fill-rule="evenodd"/>
    <path id="Path_422"  d="M93.2-781.447c-.205.512-.411.995-.657,1.487l-2.467-1.228c.207-.42.4-.845.565-1.288l2.4.961Z" transform="translate(-16.756 812.684)" fill="#ffcc4c" fill-rule="evenodd"/>
    <path id="Path_423"  d="M83.969-773.238c.537-.228.835-.361,1.36-.619l1.113,2.243s-.515.244-.743.347-.783.349-.783.349Z" transform="translate(-18.791 815.557)" fill="#ffcc4c" fill-rule="evenodd"/>
    <path id="Path_424"  d="M68.573-772.752c-.376-.272-.747-.551-1.107-.845l1.556-1.924c.329.264.639.515.979.757Z" transform="translate(-24.292 815.003)" fill="#ffcc4c" fill-rule="evenodd"/>
    <path id="Path_425"  d="M88.381-800.022c-.259-.192-.54-.4-.807-.58l-1.265,1.832c.136.095.627.437.731.52Z" transform="translate(-18.011 806.642)" fill="#ffcc4c" fill-rule="evenodd"/>
    <path id="Path_426"  d="M77.035-782.187a8,8,0,0,1-1.209-.547l-.96,1.693a8.612,8.612,0,0,0,1.549.7Z" transform="translate(-21.826 812.598)" fill="#ffcc4c" fill-rule="evenodd"/>
    <path id="Path_427"  d="M77.264-782.141a11.807,11.807,0,0,0,1.32.132l.011,1.943a8.436,8.436,0,0,1-1.689-.164Z" transform="translate(-21.146 812.796)" fill="#ffcc4c" fill-rule="evenodd"/>
    <path id="Path_428"  d="M82.626-784.342c-.1.159-.224.305-.341.457l1.511,1.228c.167-.2.308-.393.46-.617Z" transform="translate(-19.353 812.062)" fill="#ffcc4c" fill-rule="evenodd"/>
    <path id="Path_429"  d="M83.3-788.48c-.028-.1-.056-.2-.091-.3l1.867-.579c.039.123.069.252.1.377" transform="translate(-19.046 810.389)" fill="#ffcc4c" fill-rule="evenodd"/>
    <path id="Path_430"  d="M82.661-791.417c-.141-.115-.3-.239-.443-.351l2.84-3.755c.22.165.469.36.677.532Z" transform="translate(-19.375 808.335)" fill="#ffcc4c" fill-rule="evenodd"/>
    <path id="Path_431"  d="M83.885-777.6a12.46,12.46,0,0,1-4.165,1.407l-.379-2.451a15.241,15.241,0,0,0,1.585-.365c.457-.145,1.064-.407,1.064-.407l-1.327-2.975a6.015,6.015,0,0,0,.845-.449l1.027,1.652.58-.387c.135-.1.247-.195.388-.3l2.385,2.932A13.646,13.646,0,0,1,83.885-777.6Z" transform="translate(-20.334 812.564)" fill="#ffcc4c" fill-rule="evenodd"/>
    <path id="Path_432"  d="M81.994-781.107l.58-.387s0,0,.005-.007l-1.157-1.568c-.139.105-.307.213-.455.307l.1.159Z" transform="translate(-19.792 812.487)" fill="#ee402f" fill-rule="evenodd"/>
    <path id="Path_433"  d="M82.925-773.592c.465-.165.84-.32,1.167-.455l-.849-2.029c-.285.12-.76.3-1.053.4Z" transform="translate(-19.385 814.818)" fill="#96aa78" fill-rule="evenodd"/>
    <path id="Path_434"  d="M70.753-797.306a18.107,18.107,0,0,0-2.908,3.033l-2-1.475a21.089,21.089,0,0,1,3.308-3.465Z" transform="translate(-24.834 807.105)" fill="#96aa78" fill-rule="evenodd"/>
    <path id="Path_435"  d="M82.776-789.648a6.358,6.358,0,0,0-.536-.735l1.508-1.224a9.042,9.042,0,0,1,.684.944Z" transform="translate(-19.368 809.64)" fill="#96aa78" fill-rule="evenodd"/>
    <path id="Path_436"  d="M84.186-782.724a8.952,8.952,0,0,0,1.231-2.743l-1.877-.509a7.036,7.036,0,0,1-1,2.191Z" transform="translate(-19.268 811.517)" fill="#96aa78" fill-rule="evenodd"/>
    <path id="Path_437"  d="M80.622-793.11a9.042,9.042,0,0,0-2-.231,9.352,9.352,0,0,0-1.267.084l-.388-2.787a13.409,13.409,0,0,1,1.661-.1,12.053,12.053,0,0,1,2.648.295l-.64,2.725" transform="translate(-21.127 808.127)" fill="#96aa78" fill-rule="evenodd"/>
    <path id="Path_438"  d="M72.166-786.022a9.157,9.157,0,0,0,.285,1.388l-2.395.724a11.5,11.5,0,0,1-.459-3.816l2.5.111a9.181,9.181,0,0,0,.055,1.557" transform="translate(-23.587 810.934)" fill="#96aa78" fill-rule="evenodd"/>
    <path id="Path_439"  d="M79.905-793.9a8.308,8.308,0,0,0-1.58-.144c-.181,0-.361,0-.541.016l.119,1.939c.136,0,.283-.008.423-.008a7.212,7.212,0,0,1,1.228.105Z" transform="translate(-20.853 808.829)" fill="#00aa4e" fill-rule="evenodd"/>
    <path id="Path_440"  d="M75.942-791.342a7.369,7.369,0,0,1,1.609-.611l-.471-1.892a8.7,8.7,0,0,0-2.053.789Z" transform="translate(-21.772 808.894)" fill="#00aa4e" fill-rule="evenodd"/>
    <path id="Path_441"  d="M71.462-787.347a9.063,9.063,0,0,0,.069,1.2l1.932-.268a8.132,8.132,0,0,1-.055-.945Z" transform="translate(-22.961 811.057)" fill="#00aa4e" fill-rule="evenodd"/>
    <path id="Path_442"  d="M84.567-785.026c.067-.185.12-.377.173-.568l4.031,1.1s-.151.565-.248.825Z" transform="translate(-18.592 811.645)" fill="#00aa4e" fill-rule="evenodd"/>
    <path id="Path_443"  d="M73.384-779.2a11.892,11.892,0,0,1-1.633-1.439l2.092-2.04a8.688,8.688,0,0,0,1.248,1.091S73.39-779.19,73.384-779.2Z" transform="translate(-22.864 812.618)" fill="#00aa4e" fill-rule="evenodd"/>
    <path id="Path_444"  d="M82.218-799.956a17.222,17.222,0,0,1,2.589,1.028l-.891,1.8a15.766,15.766,0,0,0-2.279-.9Z" transform="translate(-19.568 806.857)" fill="#00aa4e" fill-rule="evenodd"/>
    <path id="Path_445"  d="M65.046-786.406l-.017-.208-.931.047c.015.225.061.681.08.908L67.345-786c-.023-.191-.04-.373-.047-.572Z" transform="translate(-25.415 811.305)" fill="#00aa4e" fill-rule="evenodd"/>
    <path id="Path_446"  d="M94.979-783.453c.088-.424.172-.819.244-1.244l2.443.381c-.072.476-.16.9-.261,1.371Z" transform="translate(-15.121 811.944)" fill="#00aa4e" fill-rule="evenodd"/>
    <path id="Path_447"  d="M73.74-804.975c-.469.135-.941.271-1.393.424l.78,2.345c.419-.143.836-.271,1.261-.384Z" transform="translate(-22.665 805.184)" fill="#00aa4e" fill-rule="evenodd"/>
    <path id="Path_448"  d="M78.974-782.039a7.421,7.421,0,0,0,1.079-.252l.987,3.1a9.143,9.143,0,0,1-1.576.365Z" transform="translate(-20.456 812.746)" fill="#00aa4e" fill-rule="evenodd"/>
    <path id="Path_449"  d="M76.081-792.855c-.237.1-.5.217-.721.335L74.028-795a10.4,10.4,0,0,1,.943-.459Z" transform="translate(-22.105 808.356)" fill="#00aa4e" fill-rule="evenodd"/>
    <path id="Path_450"  d="M80.3-792.642c-.188-.055-.4-.113-.6-.157l1.007-4.28a4.039,4.039,0,0,1,.9.243Z" transform="translate(-20.211 807.816)" fill="#00aa4e" fill-rule="evenodd"/>
    <path id="Path_451"  d="M92.266-800.536l-1.579,1.581c-.4-.4-.777-.737-1.211-1.111l1.463-1.687C91.616-801.185,92.266-800.536,92.266-800.536Z" transform="translate(-16.955 806.259)" fill="#00aa4e" fill-rule="evenodd"/>
    <path id="Path_452"  d="M72.911-799.183c-.389.187-.784.395-1.153.6L70.3-801.161c.429-.237.881-.475,1.328-.691Z" transform="translate(-23.347 806.225)" fill="#00aa4e" fill-rule="evenodd"/>
    <path id="Path_453"  d="M72.6-774.5l.368-.779h0c-.184-.091-.467-.22-.647-.313l-1.025,1.921c.589.307,1.245.611,1.871.859l.484-1.229.005,0C73.3-774.182,72.967-774.336,72.6-774.5Z" transform="translate(-23.017 814.979)" fill="#00aa4e" fill-rule="evenodd"/>
    <path id="Path_454"  d="M77.116-780.708a8.406,8.406,0,0,0,1.692.164c.211,0,.493-.011.707-.028l.335,4.319c-.345.029-.7.056-1.049.056a13.3,13.3,0,0,1-2.511-.239Z" transform="translate(-21.351 813.273)" fill="#44c7f4" fill-rule="evenodd"/>
    <path id="Path_455"  d="M72.469-798.631a17.1,17.1,0,0,0-2.551,1.768l1.281,1.544a15.4,15.4,0,0,1,2.275-1.544Z" transform="translate(-23.475 807.299)" fill="#44c7f4" fill-rule="evenodd"/>
    <path id="Path_456"  d="M91.329-785.637c.035-.324.061-.66.079-.983l-2.025-.117c-.015.3-.045.579-.079.865Z" transform="translate(-17.013 811.264)" fill="#44c7f4" fill-rule="evenodd"/>
    <path id="Path_457"  d="M89.711-775.444a20.105,20.105,0,0,1-3.065,2.323l-1.3-2.121a17.63,17.63,0,0,0,2.688-2.036Z" transform="translate(-18.333 814.417)" fill="#44c7f4" fill-rule="evenodd"/>
    <path id="Path_458"  d="M90.968-791.347a18.261,18.261,0,0,1,.749,3.3l2.468-.312a19.807,19.807,0,0,0-.861-3.76Z" transform="translate(-16.458 809.468)" fill="#44c7f4" fill-rule="evenodd"/>
    <path id="Path_459"  d="M66.882-793.032a17.037,17.037,0,0,0-1.339,3.775l0,.016.827.184c-.051.2-.071.312-.107.515a.243.243,0,0,1-.012.049l1.515.287a14.844,14.844,0,0,1,1.264-3.785Z" transform="translate(-24.935 809.165)" fill="#44c7f4" fill-rule="evenodd"/>
    <path id="Path_460"  d="M87.758-799.484l-.649.861c-.111-.088-.225-.168-.336-.249L86.1-798c.293.221.96.732,1.237.969l1.4-1.632C88.51-798.86,88.1-799.209,87.758-799.484Z" transform="translate(-18.08 807.015)" fill="#44c7f4" fill-rule="evenodd"/>
    <path id="Path_461"  d="M84.861-787.983a6.739,6.739,0,0,0-.179-.8l4.563-1.2c.1.4.2.8.264,1.213Z" transform="translate(-18.554 810.183)" fill="#44c7f4" fill-rule="evenodd"/>
    <path id="Path_462"  d="M76.713-792.761c-.159.051-.309.105-.46.159l-1.42-3.931c.215-.072.457-.159.673-.223Z" transform="translate(-21.837 807.924)" fill="#44c7f4" fill-rule="evenodd"/>
    <path id="Path_463"  d="M84.044-779.98c.357-.3.719-.636,1.044-.973l-1.815-1.729a8.718,8.718,0,0,1-.811.759Z" transform="translate(-19.293 812.615)" fill="#44c7f4" fill-rule="evenodd"/>
    <path id="Path_464"  d="M82.848-781.588a8.718,8.718,0,0,0,.811-.759l.037.041,0,0-1.449-1.385a6.93,6.93,0,0,1-.941.833l1.157,1.568c.139-.1.244-.188.383-.3l.024.037h0Z" transform="translate(-19.678 812.279)" fill="#f48120" fill-rule="evenodd"/>
  </g>
</svg>
