<svg xmlns="http://www.w3.org/2000/svg" width="50.807" height="49.576" viewBox="0 0 50.807 49.576">
  <g id="Group_36" transform="translate(0 0.635)">
    <path id="Path_484" data-name="Path 484" d="M586.816-734.247v-19.108h21.319v7.623l1.583,2.567,8.875.3v10.059Z" transform="translate(-577.303 753.355)" fill="#fff" fill-rule="evenodd"/>
    <path id="Path_485" data-name="Path 485" d="M603.978-752.473l-1.173,2.215.257,5.424,1.74,2.1,3.04-.421H612l-.237-1.5Z" transform="translate(-571.973 753.649)" fill="#d5dfed" fill-rule="evenodd"/>
    <rect id="Rectangle_127" data-name="Rectangle 127" width="46.299" height="20.9" transform="translate(2.539 21.221)" fill="#e9eff5"/>
    <rect id="Rectangle_128" data-name="Rectangle 128" width="31.768" height="16.676" transform="translate(9.517 31.628)" fill="#d5dfed"/>
    <path id="Path_486" data-name="Path 486" d="M579.681-719.344v-14.42a5.128,5.128,0,0,1,5.112-5.117h40.58a5.131,5.131,0,0,1,5.115,5.117v14.42a5.124,5.124,0,0,1-5.115,5.112h-4.8a1.175,1.175,0,0,0,.087-.159l.167-.121a2.814,2.814,0,0,0,.472-.447,2.093,2.093,0,0,0,.451-1.719l-.015-.055h3.641a2.625,2.625,0,0,0,2.615-2.612v-14.42a2.631,2.631,0,0,0-2.615-2.616h-40.58a2.628,2.628,0,0,0-2.612,2.616v14.42a2.622,2.622,0,0,0,2.612,2.612h4.516a2.061,2.061,0,0,0,.881,1.327l.124.079.008.177a2,2,0,0,0,.325.917h-5.855A5.121,5.121,0,0,1,579.681-719.344Z" transform="translate(-579.681 758.18)" fill="#adbcd0" fill-rule="evenodd"/>
    <rect id="Rectangle_129" data-name="Rectangle 129" width="31.772" height="16.677" transform="translate(9.516 31.628)" fill="none" stroke="#adbcd0" stroke-width="1.27"/>
    <path id="Path_487" data-name="Path 487" d="M591.107-729.636h20.338" transform="translate(-575.872 761.261)" fill="none" stroke="#adbcd0" stroke-width="1.27"/>
    <path id="Path_488" data-name="Path 488" d="M611.444-725.466H591.107" transform="translate(-575.872 762.651)" fill="none" stroke="#fff" stroke-width="2.25" fill-rule="evenodd"/>
    <path id="Path_489" data-name="Path 489" d="M611.444-721.3H591.107" transform="translate(-575.872 764.042)" fill="none" stroke="#fff" stroke-width="2.25" fill-rule="evenodd"/>
    <path id="Path_490" data-name="Path 490" d="M611.444-717.126H591.107" transform="translate(-575.872 765.432)" fill="none" stroke="#adbcd0" stroke-width="1.27"/>
    <path id="Path_491" data-name="Path 491" d="M618.592-742.864v10.059H586.816v-20.549h21.319Z" transform="translate(-577.303 753.355)" fill="none" stroke="#adbcd0" stroke-width="1.27"/>
    <path id="Path_492" data-name="Path 492" d="M602.8-753.355v7.623a2.86,2.86,0,0,0,2.856,2.868h7.6" transform="translate(-571.973 753.355)" fill="none" stroke="#adbcd0" stroke-width="1.27"/>
  </g>
</svg>
